<svg width="24" height="24" viewBox="0 0 24 24" fill="none" xmlns="http://www.w3.org/2000/svg">
  <rect width="24" height="24" rx="4" fill="#1E40AF"/>
  <path d="M6.5 10.5C7.88071 10.5 9 9.38071 9 8C9 6.61929 7.88071 5.5 6.5 5.5C5.11929 5.5 4 6.61929 4 8C4 9.38071 5.11929 10.5 6.5 10.5Z" fill="white"/>
  <path d="M17.5 10.5C18.8807 10.5 20 9.38071 20 8C20 6.61929 18.8807 5.5 17.5 5.5C16.1193 5.5 15 6.61929 15 8C15 9.38071 16.1193 10.5 17.5 10.5Z" fill="white"/>
  <path d="M6 12.5H18C19.1046 12.5 20 13.3954 20 14.5V16.5C20 17.6046 19.1046 18.5 18 18.5H6C4.89543 18.5 4 17.6046 4 16.5V14.5C4 13.3954 4.89543 12.5 6 12.5Z" fill="white"/>
  <path d="M10 7L14 7" stroke="#1E40AF" stroke-width="1.5" stroke-linecap="round"/>
</svg>